<?xml version="1.0" encoding="utf-8" ?>
<svg baseProfile="full" height="78mm" version="1.1" viewBox="0,0,200,78" width="200mm" xmlns="http://www.w3.org/2000/svg" xmlns:ev="http://www.w3.org/2001/xml-events" xmlns:xlink="http://www.w3.org/1999/xlink"><defs /><rect fill="#222222" height="78" width="200" x="0" y="0" /><text fill="#FFFFFF" style="font-size:12px; font-family:Arial; font-weight:bold;" x="10" y="20">Dex DUOLINGO</text><text alignment-baseline="hanging" fill="#FFFFFF" style="font-size:10.0px; font-family:Arial;" x="10" y="30">2021</text><text alignment-baseline="hanging" fill="#FFFFFF" style="font-size:4.125px; font-family:Arial;" x="175" y="35">10983 XP</text><text fill="#FFFFFF" style="font-size:2.5px; font-family:Arial" x="10.0" y="44">Jan</text><text fill="#FFFFFF" style="font-size:2.5px; font-family:Arial" x="25.5" y="44">Feb</text><text fill="#FFFFFF" style="font-size:2.5px; font-family:Arial" x="41.0" y="44">Mar</text><text fill="#FFFFFF" style="font-size:2.5px; font-family:Arial" x="56.5" y="44">Apr</text><text fill="#FFFFFF" style="font-size:2.5px; font-family:Arial" x="72.0" y="44">May</text><text fill="#FFFFFF" style="font-size:2.5px; font-family:Arial" x="87.5" y="44">Jun</text><text fill="#FFFFFF" style="font-size:2.5px; font-family:Arial" x="103.0" y="44">Jul</text><text fill="#FFFFFF" style="font-size:2.5px; font-family:Arial" x="118.5" y="44">Aug</text><text fill="#FFFFFF" style="font-size:2.5px; font-family:Arial" x="134.0" y="44">Sep</text><text fill="#FFFFFF" style="font-size:2.5px; font-family:Arial" x="149.5" y="44">Oct</text><text fill="#FFFFFF" style="font-size:2.5px; font-family:Arial" x="165.0" y="44">Nov</text><text fill="#FFFFFF" style="font-size:2.5px; font-family:Arial" x="180.5" y="44">Dec</text><rect fill="#444444" height="2.6" width="2.6" x="10.0" y="45.5"><title>2020-12-28</title></rect><rect fill="#444444" height="2.6" width="2.6" x="10.0" y="49.0"><title>2020-12-29</title></rect><rect fill="#444444" height="2.6" width="2.6" x="10.0" y="52.5"><title>2020-12-30</title></rect><rect fill="#444444" height="2.6" width="2.6" x="10.0" y="56.0"><title>2020-12-31</title></rect><rect fill="#4dd4ff" height="2.6" width="2.6" x="10.0" y="59.5"><title>2021-01-01 13 XP</title></rect><rect fill="#4dd5ff" height="2.6" width="2.6" x="10.0" y="63.0"><title>2021-01-02 15 XP</title></rect><rect fill="#ffe800" height="2.6" width="2.6" x="10.0" y="66.5"><title>2021-01-03 108 XP</title></rect><rect fill="#4dd4ff" height="2.6" width="2.6" x="13.5" y="45.5"><title>2021-01-04 13 XP</title></rect><rect fill="#4dd4ff" height="2.6" width="2.6" x="13.5" y="49.0"><title>2021-01-05 13 XP</title></rect><rect fill="#444444" height="2.6" width="2.6" x="13.5" y="52.5"><title>2021-01-06</title></rect><rect fill="#4cdcff" height="2.6" width="2.6" x="13.5" y="56.0"><title>2021-01-07 30 XP</title></rect><rect fill="#4dd4ff" height="2.6" width="2.6" x="13.5" y="59.5"><title>2021-01-08 14 XP</title></rect><rect fill="#4dd5ff" height="2.6" width="2.6" x="13.5" y="63.0"><title>2021-01-09 15 XP</title></rect><rect fill="#4dd5ff" height="2.6" width="2.6" x="13.5" y="66.5"><title>2021-01-10 15 XP</title></rect><rect fill="#4dd5ff" height="2.6" width="2.6" x="17.0" y="45.5"><title>2021-01-11 15 XP</title></rect><rect fill="#4cdbff" height="2.6" width="2.6" x="17.0" y="49.0"><title>2021-01-12 27 XP</title></rect><rect fill="#4dd4ff" height="2.6" width="2.6" x="17.0" y="52.5"><title>2021-01-13 14 XP</title></rect><rect fill="#4dd4ff" height="2.6" width="2.6" x="17.0" y="56.0"><title>2021-01-14 13 XP</title></rect><rect fill="#4dd5ff" height="2.6" width="2.6" x="17.0" y="59.5"><title>2021-01-15 15 XP</title></rect><rect fill="#4aeaff" height="2.6" width="2.6" x="17.0" y="63.0"><title>2021-01-16 55 XP</title></rect><rect fill="#4dd4ff" height="2.6" width="2.6" x="17.0" y="66.5"><title>2021-01-17 13 XP</title></rect><rect fill="#4dd4ff" height="2.6" width="2.6" x="20.5" y="45.5"><title>2021-01-18 14 XP</title></rect><rect fill="#4dd3ff" height="2.6" width="2.6" x="20.5" y="49.0"><title>2021-01-19 12 XP</title></rect><rect fill="#4cdaff" height="2.6" width="2.6" x="20.5" y="52.5"><title>2021-01-20 26 XP</title></rect><rect fill="red" height="2.6" width="2.6" x="20.5" y="56.0"><title>2021-01-21 133 XP</title></rect><rect fill="#fff000" height="2.6" width="2.6" x="20.5" y="59.5"><title>2021-01-22 72 XP</title></rect><rect fill="#ffed00" height="2.6" width="2.6" x="20.5" y="63.0"><title>2021-01-23 87 XP</title></rect><rect fill="red" height="2.6" width="2.6" x="20.5" y="66.5"><title>2021-01-24 314 XP</title></rect><rect fill="#4dd5ff" height="2.6" width="2.6" x="24.0" y="45.5"><title>2021-01-25 15 XP</title></rect><rect fill="#4cdbff" height="2.6" width="2.6" x="24.0" y="49.0"><title>2021-01-26 28 XP</title></rect><rect fill="#ffee00" height="2.6" width="2.6" x="24.0" y="52.5"><title>2021-01-27 83 XP</title></rect><rect fill="#4aeaff" height="2.6" width="2.6" x="24.0" y="56.0"><title>2021-01-28 56 XP</title></rect><rect fill="#4aeaff" height="2.6" width="2.6" x="24.0" y="59.5"><title>2021-01-29 56 XP</title></rect><rect fill="#4cdcff" height="2.6" width="2.6" x="24.0" y="63.0"><title>2021-01-30 29 XP</title></rect><rect fill="#4dd4ff" height="2.6" width="2.6" x="24.0" y="66.5"><title>2021-01-31 13 XP</title></rect><rect fill="#ffeb00" height="2.6" width="2.6" x="27.5" y="45.5"><title>2021-02-01 97 XP</title></rect><rect fill="#4dd4ff" height="2.6" width="2.6" x="27.5" y="49.0"><title>2021-02-02 14 XP</title></rect><rect fill="#4dd4ff" height="2.6" width="2.6" x="27.5" y="52.5"><title>2021-02-03 14 XP</title></rect><rect fill="#ffed00" height="2.6" width="2.6" x="27.5" y="56.0"><title>2021-02-04 88 XP</title></rect><rect fill="#4dd4ff" height="2.6" width="2.6" x="27.5" y="59.5"><title>2021-02-05 13 XP</title></rect><rect fill="#ffec00" height="2.6" width="2.6" x="27.5" y="63.0"><title>2021-02-06 90 XP</title></rect><rect fill="#4be2ff" height="2.6" width="2.6" x="27.5" y="66.5"><title>2021-02-07 41 XP</title></rect><rect fill="#4dd4ff" height="2.6" width="2.6" x="31.0" y="45.5"><title>2021-02-08 14 XP</title></rect><rect fill="#ffea00" height="2.6" width="2.6" x="31.0" y="49.0"><title>2021-02-09 98 XP</title></rect><rect fill="#ffed00" height="2.6" width="2.6" x="31.0" y="52.5"><title>2021-02-10 85 XP</title></rect><rect fill="#ffeb00" height="2.6" width="2.6" x="31.0" y="56.0"><title>2021-02-11 97 XP</title></rect><rect fill="#4cdbff" height="2.6" width="2.6" x="31.0" y="59.5"><title>2021-02-12 27 XP</title></rect><rect fill="#4dd4ff" height="2.6" width="2.6" x="31.0" y="63.0"><title>2021-02-13 14 XP</title></rect><rect fill="#4be3ff" height="2.6" width="2.6" x="31.0" y="66.5"><title>2021-02-14 43 XP</title></rect><rect fill="red" height="2.6" width="2.6" x="34.5" y="45.5"><title>2021-02-15 125 XP</title></rect><rect fill="#ffeb00" height="2.6" width="2.6" x="34.5" y="49.0"><title>2021-02-16 93 XP</title></rect><rect fill="#4cdcff" height="2.6" width="2.6" x="34.5" y="52.5"><title>2021-02-17 29 XP</title></rect><rect fill="#4be3ff" height="2.6" width="2.6" x="34.5" y="56.0"><title>2021-02-18 43 XP</title></rect><rect fill="#4dd3ff" height="2.6" width="2.6" x="34.5" y="59.5"><title>2021-02-19 12 XP</title></rect><rect fill="#4dd4ff" height="2.6" width="2.6" x="34.5" y="63.0"><title>2021-02-20 13 XP</title></rect><rect fill="#4cdcff" height="2.6" width="2.6" x="34.5" y="66.5"><title>2021-02-21 30 XP</title></rect><rect fill="#4cdaff" height="2.6" width="2.6" x="38.0" y="45.5"><title>2021-02-22 26 XP</title></rect><rect fill="#ffeb00" height="2.6" width="2.6" x="38.0" y="49.0"><title>2021-02-23 95 XP</title></rect><rect fill="#4be2ff" height="2.6" width="2.6" x="38.0" y="52.5"><title>2021-02-24 41 XP</title></rect><rect fill="#4dd5ff" height="2.6" width="2.6" x="38.0" y="56.0"><title>2021-02-25 15 XP</title></rect><rect fill="#4aeaff" height="2.6" width="2.6" x="38.0" y="59.5"><title>2021-02-26 56 XP</title></rect><rect fill="#4cdaff" height="2.6" width="2.6" x="38.0" y="63.0"><title>2021-02-27 26 XP</title></rect><rect fill="#4cdbff" height="2.6" width="2.6" x="38.0" y="66.5"><title>2021-02-28 28 XP</title></rect><rect fill="#4dd4ff" height="2.6" width="2.6" x="41.5" y="45.5"><title>2021-03-01 13 XP</title></rect><rect fill="#4be3ff" height="2.6" width="2.6" x="41.5" y="49.0"><title>2021-03-02 42 XP</title></rect><rect fill="#4ae9ff" height="2.6" width="2.6" x="41.5" y="52.5"><title>2021-03-03 53 XP</title></rect><rect fill="#4cdbff" height="2.6" width="2.6" x="41.5" y="56.0"><title>2021-03-04 27 XP</title></rect><rect fill="#4dd4ff" height="2.6" width="2.6" x="41.5" y="59.5"><title>2021-03-05 13 XP</title></rect><rect fill="#4dd3ff" height="2.6" width="2.6" x="41.5" y="63.0"><title>2021-03-06 12 XP</title></rect><rect fill="#4cdbff" height="2.6" width="2.6" x="41.5" y="66.5"><title>2021-03-07 27 XP</title></rect><rect fill="#4dd5ff" height="2.6" width="2.6" x="45.0" y="45.5"><title>2021-03-08 15 XP</title></rect><rect fill="#4cdaff" height="2.6" width="2.6" x="45.0" y="49.0"><title>2021-03-09 25 XP</title></rect><rect fill="#4dd4ff" height="2.6" width="2.6" x="45.0" y="52.5"><title>2021-03-10 13 XP</title></rect><rect fill="#ffee00" height="2.6" width="2.6" x="45.0" y="56.0"><title>2021-03-11 82 XP</title></rect><rect fill="#fff100" height="2.6" width="2.6" x="45.0" y="59.5"><title>2021-03-12 69 XP</title></rect><rect fill="#49ecff" height="2.6" width="2.6" x="45.0" y="63.0"><title>2021-03-13 60 XP</title></rect><rect fill="#4ae9ff" height="2.6" width="2.6" x="45.0" y="66.5"><title>2021-03-14 54 XP</title></rect><rect fill="#4ae9ff" height="2.6" width="2.6" x="48.5" y="45.5"><title>2021-03-15 54 XP</title></rect><rect fill="#4cdbff" height="2.6" width="2.6" x="48.5" y="49.0"><title>2021-03-16 27 XP</title></rect><rect fill="#fff100" height="2.6" width="2.6" x="48.5" y="52.5"><title>2021-03-17 71 XP</title></rect><rect fill="#4cdcff" height="2.6" width="2.6" x="48.5" y="56.0"><title>2021-03-18 30 XP</title></rect><rect fill="#fff000" height="2.6" width="2.6" x="48.5" y="59.5"><title>2021-03-19 72 XP</title></rect><rect fill="#4ae8ff" height="2.6" width="2.6" x="48.5" y="63.0"><title>2021-03-20 52 XP</title></rect><rect fill="#4cd9ff" height="2.6" width="2.6" x="48.5" y="66.5"><title>2021-03-21 24 XP</title></rect><rect fill="red" height="2.6" width="2.6" x="52.0" y="45.5"><title>2021-03-22 139 XP</title></rect><rect fill="red" height="2.6" width="2.6" x="52.0" y="49.0"><title>2021-03-23 112 XP</title></rect><rect fill="#fff100" height="2.6" width="2.6" x="52.0" y="52.5"><title>2021-03-24 71 XP</title></rect><rect fill="#4be3ff" height="2.6" width="2.6" x="52.0" y="56.0"><title>2021-03-25 43 XP</title></rect><rect fill="#4ae9ff" height="2.6" width="2.6" x="52.0" y="59.5"><title>2021-03-26 53 XP</title></rect><rect fill="red" height="2.6" width="2.6" x="52.0" y="63.0"><title>2021-03-27 126 XP</title></rect><rect fill="#4dd5ff" height="2.6" width="2.6" x="52.0" y="66.5"><title>2021-03-28 15 XP</title></rect><rect fill="#ffeb00" height="2.6" width="2.6" x="55.5" y="45.5"><title>2021-03-29 95 XP</title></rect><rect fill="#4aeaff" height="2.6" width="2.6" x="55.5" y="49.0"><title>2021-03-30 56 XP</title></rect><rect fill="#4ae9ff" height="2.6" width="2.6" x="55.5" y="52.5"><title>2021-03-31 54 XP</title></rect><rect fill="red" height="2.6" width="2.6" x="55.5" y="56.0"><title>2021-04-01 134 XP</title></rect><rect fill="#4be2ff" height="2.6" width="2.6" x="55.5" y="59.5"><title>2021-04-02 41 XP</title></rect><rect fill="#fff100" height="2.6" width="2.6" x="55.5" y="63.0"><title>2021-04-03 70 XP</title></rect><rect fill="#4dd3ff" height="2.6" width="2.6" x="55.5" y="66.5"><title>2021-04-04 11 XP</title></rect><rect fill="#4ae8ff" height="2.6" width="2.6" x="59.0" y="45.5"><title>2021-04-05 51 XP</title></rect><rect fill="#4ae7ff" height="2.6" width="2.6" x="59.0" y="49.0"><title>2021-04-06 50 XP</title></rect><rect fill="#4be3ff" height="2.6" width="2.6" x="59.0" y="52.5"><title>2021-04-07 42 XP</title></rect><rect fill="#4dd3ff" height="2.6" width="2.6" x="59.0" y="56.0"><title>2021-04-08 12 XP</title></rect><rect fill="#4cd8ff" height="2.6" width="2.6" x="59.0" y="59.5"><title>2021-04-09 22 XP</title></rect><rect fill="#4dd5ff" height="2.6" width="2.6" x="59.0" y="63.0"><title>2021-04-10 15 XP</title></rect><rect fill="#4dd2ff" height="2.6" width="2.6" x="59.0" y="66.5"><title>2021-04-11 10 XP</title></rect><rect fill="#4aeaff" height="2.6" width="2.6" x="62.5" y="45.5"><title>2021-04-12 55 XP</title></rect><rect fill="#4dd4ff" height="2.6" width="2.6" x="62.5" y="49.0"><title>2021-04-13 14 XP</title></rect><rect fill="#4dd3ff" height="2.6" width="2.6" x="62.5" y="52.5"><title>2021-04-14 12 XP</title></rect><rect fill="#4cdaff" height="2.6" width="2.6" x="62.5" y="56.0"><title>2021-04-15 25 XP</title></rect><rect fill="#4dd2ff" height="2.6" width="2.6" x="62.5" y="59.5"><title>2021-04-16 10 XP</title></rect><rect fill="#4ae8ff" height="2.6" width="2.6" x="62.5" y="63.0"><title>2021-04-17 52 XP</title></rect><rect fill="#4dd4ff" height="2.6" width="2.6" x="62.5" y="66.5"><title>2021-04-18 13 XP</title></rect><rect fill="#fff100" height="2.6" width="2.6" x="66.0" y="45.5"><title>2021-04-19 68 XP</title></rect><rect fill="#fff100" height="2.6" width="2.6" x="66.0" y="49.0"><title>2021-04-20 68 XP</title></rect><rect fill="#4be3ff" height="2.6" width="2.6" x="66.0" y="52.5"><title>2021-04-21 43 XP</title></rect><rect fill="#4dd3ff" height="2.6" width="2.6" x="66.0" y="56.0"><title>2021-04-22 12 XP</title></rect><rect fill="#4cdcff" height="2.6" width="2.6" x="66.0" y="59.5"><title>2021-04-23 30 XP</title></rect><rect fill="#4dd5ff" height="2.6" width="2.6" x="66.0" y="63.0"><title>2021-04-24 15 XP</title></rect><rect fill="#4aeaff" height="2.6" width="2.6" x="66.0" y="66.5"><title>2021-04-25 55 XP</title></rect><rect fill="#4cdbff" height="2.6" width="2.6" x="69.5" y="45.5"><title>2021-04-26 27 XP</title></rect><rect fill="#4cdaff" height="2.6" width="2.6" x="69.5" y="49.0"><title>2021-04-27 25 XP</title></rect><rect fill="#ffee00" height="2.6" width="2.6" x="69.5" y="52.5"><title>2021-04-28 82 XP</title></rect><rect fill="#4dd4ff" height="2.6" width="2.6" x="69.5" y="56.0"><title>2021-04-29 13 XP</title></rect><rect fill="#4cdbff" height="2.6" width="2.6" x="69.5" y="59.5"><title>2021-04-30 28 XP</title></rect><rect fill="#4be2ff" height="2.6" width="2.6" x="69.5" y="63.0"><title>2021-05-01 41 XP</title></rect><rect fill="#4be2ff" height="2.6" width="2.6" x="69.5" y="66.5"><title>2021-05-02 40 XP</title></rect><rect fill="#4cdcff" height="2.6" width="2.6" x="73.0" y="45.5"><title>2021-05-03 29 XP</title></rect><rect fill="#fff100" height="2.6" width="2.6" x="73.0" y="49.0"><title>2021-05-04 68 XP</title></rect><rect fill="#4dd4ff" height="2.6" width="2.6" x="73.0" y="52.5"><title>2021-05-05 13 XP</title></rect><rect fill="#4be1ff" height="2.6" width="2.6" x="73.0" y="56.0"><title>2021-05-06 39 XP</title></rect><rect fill="#4aeaff" height="2.6" width="2.6" x="73.0" y="59.5"><title>2021-05-07 55 XP</title></rect><rect fill="#4dd5ff" height="2.6" width="2.6" x="73.0" y="63.0"><title>2021-05-08 15 XP</title></rect><rect fill="#4dd4ff" height="2.6" width="2.6" x="73.0" y="66.5"><title>2021-05-09 13 XP</title></rect><rect fill="#4cdbff" height="2.6" width="2.6" x="76.5" y="45.5"><title>2021-05-10 27 XP</title></rect><rect fill="#4be4ff" height="2.6" width="2.6" x="76.5" y="49.0"><title>2021-05-11 44 XP</title></rect><rect fill="#4dd4ff" height="2.6" width="2.6" x="76.5" y="52.5"><title>2021-05-12 14 XP</title></rect><rect fill="#4dd2ff" height="2.6" width="2.6" x="76.5" y="56.0"><title>2021-05-13 10 XP</title></rect><rect fill="red" height="2.6" width="2.6" x="76.5" y="59.5"><title>2021-05-14 139 XP</title></rect><rect fill="#4be2ff" height="2.6" width="2.6" x="76.5" y="63.0"><title>2021-05-15 41 XP</title></rect><rect fill="#ffed00" height="2.6" width="2.6" x="76.5" y="66.5"><title>2021-05-16 87 XP</title></rect><rect fill="#4be3ff" height="2.6" width="2.6" x="80.0" y="45.5"><title>2021-05-17 42 XP</title></rect><rect fill="#4cdbff" height="2.6" width="2.6" x="80.0" y="49.0"><title>2021-05-18 27 XP</title></rect><rect fill="#ffe900" height="2.6" width="2.6" x="80.0" y="52.5"><title>2021-05-19 105 XP</title></rect><rect fill="#4cd7ff" height="2.6" width="2.6" x="80.0" y="56.0"><title>2021-05-20 20 XP</title></rect><rect fill="#fff300" height="2.6" width="2.6" x="80.0" y="59.5"><title>2021-05-21 63 XP</title></rect><rect fill="#4dd5ff" height="2.6" width="2.6" x="80.0" y="63.0"><title>2021-05-22 15 XP</title></rect><rect fill="#4ae9ff" height="2.6" width="2.6" x="80.0" y="66.5"><title>2021-05-23 54 XP</title></rect><rect fill="#4ae7ff" height="2.6" width="2.6" x="83.5" y="45.5"><title>2021-05-24 50 XP</title></rect><rect fill="#4be3ff" height="2.6" width="2.6" x="83.5" y="49.0"><title>2021-05-25 42 XP</title></rect><rect fill="#4dd2ff" height="2.6" width="2.6" x="83.5" y="52.5"><title>2021-05-26 10 XP</title></rect><rect fill="#4be0ff" height="2.6" width="2.6" x="83.5" y="56.0"><title>2021-05-27 37 XP</title></rect><rect fill="#4aebff" height="2.6" width="2.6" x="83.5" y="59.5"><title>2021-05-28 58 XP</title></rect><rect fill="#4ae9ff" height="2.6" width="2.6" x="83.5" y="63.0"><title>2021-05-29 54 XP</title></rect><rect fill="#4ae5ff" height="2.6" width="2.6" x="83.5" y="66.5"><title>2021-05-30 46 XP</title></rect><rect fill="#4cdbff" height="2.6" width="2.6" x="87.0" y="45.5"><title>2021-05-31 28 XP</title></rect><rect fill="#4dd2ff" height="2.6" width="2.6" x="87.0" y="49.0"><title>2021-06-01 10 XP</title></rect><rect fill="#4dd4ff" height="2.6" width="2.6" x="87.0" y="52.5"><title>2021-06-02 13 XP</title></rect><rect fill="#4cdbff" height="2.6" width="2.6" x="87.0" y="56.0"><title>2021-06-03 28 XP</title></rect><rect fill="#fff100" height="2.6" width="2.6" x="87.0" y="59.5"><title>2021-06-04 70 XP</title></rect><rect fill="#4cd7ff" height="2.6" width="2.6" x="87.0" y="63.0"><title>2021-06-05 20 XP</title></rect><rect fill="red" height="2.6" width="2.6" x="87.0" y="66.5"><title>2021-06-06 181 XP</title></rect><rect fill="#4bdfff" height="2.6" width="2.6" x="90.5" y="45.5"><title>2021-06-07 35 XP</title></rect><rect fill="#49ecff" height="2.6" width="2.6" x="90.5" y="49.0"><title>2021-06-08 60 XP</title></rect><rect fill="#4bddff" height="2.6" width="2.6" x="90.5" y="52.5"><title>2021-06-09 32 XP</title></rect><rect fill="#4cd7ff" height="2.6" width="2.6" x="90.5" y="56.0"><title>2021-06-10 20 XP</title></rect><rect fill="#fff200" height="2.6" width="2.6" x="90.5" y="59.5"><title>2021-06-11 67 XP</title></rect><rect fill="#ffe700" height="2.6" width="2.6" x="90.5" y="63.0"><title>2021-06-12 110 XP</title></rect><rect fill="#4cdaff" height="2.6" width="2.6" x="90.5" y="66.5"><title>2021-06-13 26 XP</title></rect><rect fill="#4dd2ff" height="2.6" width="2.6" x="94.0" y="45.5"><title>2021-06-14 10 XP</title></rect><rect fill="#4cd7ff" height="2.6" width="2.6" x="94.0" y="49.0"><title>2021-06-15 20 XP</title></rect><rect fill="#4dd5ff" height="2.6" width="2.6" x="94.0" y="52.5"><title>2021-06-16 15 XP</title></rect><rect fill="#4ae5ff" height="2.6" width="2.6" x="94.0" y="56.0"><title>2021-06-17 47 XP</title></rect><rect fill="#fff100" height="2.6" width="2.6" x="94.0" y="59.5"><title>2021-06-18 69 XP</title></rect><rect fill="#ffeb00" height="2.6" width="2.6" x="94.0" y="63.0"><title>2021-06-19 95 XP</title></rect><rect fill="red" height="2.6" width="2.6" x="94.0" y="66.5"><title>2021-06-20 451 XP</title></rect><rect fill="red" height="2.6" width="2.6" x="97.5" y="45.5"><title>2021-06-21 387 XP</title></rect><rect fill="#4cdaff" height="2.6" width="2.6" x="97.5" y="49.0"><title>2021-06-22 25 XP</title></rect><rect fill="#4cd7ff" height="2.6" width="2.6" x="97.5" y="52.5"><title>2021-06-23 20 XP</title></rect><rect fill="#4bdeff" height="2.6" width="2.6" x="97.5" y="56.0"><title>2021-06-24 33 XP</title></rect><rect fill="#4be2ff" height="2.6" width="2.6" x="97.5" y="59.5"><title>2021-06-25 40 XP</title></rect><rect fill="#4dd4ff" height="2.6" width="2.6" x="97.5" y="63.0"><title>2021-06-26 13 XP</title></rect><rect fill="#4dd3ff" height="2.6" width="2.6" x="97.5" y="66.5"><title>2021-06-27 12 XP</title></rect><rect fill="#4dd4ff" height="2.6" width="2.6" x="101.0" y="45.5"><title>2021-06-28 13 XP</title></rect><rect fill="#4cdaff" height="2.6" width="2.6" x="101.0" y="49.0"><title>2021-06-29 25 XP</title></rect><rect fill="#4cd7ff" height="2.6" width="2.6" x="101.0" y="52.5"><title>2021-06-30 20 XP</title></rect><rect fill="#4cd7ff" height="2.6" width="2.6" x="101.0" y="56.0"><title>2021-07-01 20 XP</title></rect><rect fill="#4cd9ff" height="2.6" width="2.6" x="101.0" y="59.5"><title>2021-07-02 24 XP</title></rect><rect fill="#4dd3ff" height="2.6" width="2.6" x="101.0" y="63.0"><title>2021-07-03 12 XP</title></rect><rect fill="#4be2ff" height="2.6" width="2.6" x="101.0" y="66.5"><title>2021-07-04 41 XP</title></rect><rect fill="#4ae7ff" height="2.6" width="2.6" x="104.5" y="45.5"><title>2021-07-05 50 XP</title></rect><rect fill="#4bddff" height="2.6" width="2.6" x="104.5" y="49.0"><title>2021-07-06 32 XP</title></rect><rect fill="#4dd4ff" height="2.6" width="2.6" x="104.5" y="52.5"><title>2021-07-07 14 XP</title></rect><rect fill="#4cdaff" height="2.6" width="2.6" x="104.5" y="56.0"><title>2021-07-08 25 XP</title></rect><rect fill="#4aeaff" height="2.6" width="2.6" x="104.5" y="59.5"><title>2021-07-09 55 XP</title></rect><rect fill="#4cdbff" height="2.6" width="2.6" x="104.5" y="63.0"><title>2021-07-10 27 XP</title></rect><rect fill="#4bdeff" height="2.6" width="2.6" x="104.5" y="66.5"><title>2021-07-11 33 XP</title></rect><rect fill="red" height="2.6" width="2.6" x="108.0" y="45.5"><title>2021-07-12 113 XP</title></rect><rect fill="#4dd4ff" height="2.6" width="2.6" x="108.0" y="49.0"><title>2021-07-13 14 XP</title></rect><rect fill="#4cdaff" height="2.6" width="2.6" x="108.0" y="52.5"><title>2021-07-14 25 XP</title></rect><rect fill="#4dd3ff" height="2.6" width="2.6" x="108.0" y="56.0"><title>2021-07-15 12 XP</title></rect><rect fill="#4dd3ff" height="2.6" width="2.6" x="108.0" y="59.5"><title>2021-07-16 12 XP</title></rect><rect fill="#4dd4ff" height="2.6" width="2.6" x="108.0" y="63.0"><title>2021-07-17 14 XP</title></rect><rect fill="#4dd4ff" height="2.6" width="2.6" x="108.0" y="66.5"><title>2021-07-18 13 XP</title></rect><rect fill="red" height="2.6" width="2.6" x="111.5" y="45.5"><title>2021-07-19 417 XP</title></rect><rect fill="#4be2ff" height="2.6" width="2.6" x="111.5" y="49.0"><title>2021-07-20 41 XP</title></rect><rect fill="#4dd3ff" height="2.6" width="2.6" x="111.5" y="52.5"><title>2021-07-21 12 XP</title></rect><rect fill="#4ae5ff" height="2.6" width="2.6" x="111.5" y="56.0"><title>2021-07-22 47 XP</title></rect><rect fill="#4dd4ff" height="2.6" width="2.6" x="111.5" y="59.5"><title>2021-07-23 13 XP</title></rect><rect fill="#4dd5ff" height="2.6" width="2.6" x="111.5" y="63.0"><title>2021-07-24 15 XP</title></rect><rect fill="#444444" height="2.6" width="2.6" x="111.5" y="66.5"><title>2021-07-25</title></rect><rect fill="#4ae8ff" height="2.6" width="2.6" x="115.0" y="45.5"><title>2021-07-26 51 XP</title></rect><rect fill="#4cdbff" height="2.6" width="2.6" x="115.0" y="49.0"><title>2021-07-27 27 XP</title></rect><rect fill="#4dd4ff" height="2.6" width="2.6" x="115.0" y="52.5"><title>2021-07-28 13 XP</title></rect><rect fill="#4dd4ff" height="2.6" width="2.6" x="115.0" y="56.0"><title>2021-07-29 14 XP</title></rect><rect fill="#4dd4ff" height="2.6" width="2.6" x="115.0" y="59.5"><title>2021-07-30 14 XP</title></rect><rect fill="#444444" height="2.6" width="2.6" x="115.0" y="63.0"><title>2021-07-31</title></rect><rect fill="red" height="2.6" width="2.6" x="115.0" y="66.5"><title>2021-08-01 1093 XP</title></rect><rect fill="#444444" height="2.6" width="2.6" x="118.5" y="45.5"><title>2021-08-02</title></rect><rect fill="#444444" height="2.6" width="2.6" x="118.5" y="49.0"><title>2021-08-03</title></rect><rect fill="#444444" height="2.6" width="2.6" x="118.5" y="52.5"><title>2021-08-04</title></rect><rect fill="#444444" height="2.6" width="2.6" x="118.5" y="56.0"><title>2021-08-05</title></rect><rect fill="#444444" height="2.6" width="2.6" x="118.5" y="59.5"><title>2021-08-06</title></rect><rect fill="#444444" height="2.6" width="2.6" x="118.5" y="63.0"><title>2021-08-07</title></rect><rect fill="#444444" height="2.6" width="2.6" x="118.5" y="66.5"><title>2021-08-08</title></rect><rect fill="#444444" height="2.6" width="2.6" x="122.0" y="45.5"><title>2021-08-09</title></rect><rect fill="#444444" height="2.6" width="2.6" x="122.0" y="49.0"><title>2021-08-10</title></rect><rect fill="#444444" height="2.6" width="2.6" x="122.0" y="52.5"><title>2021-08-11</title></rect><rect fill="#444444" height="2.6" width="2.6" x="122.0" y="56.0"><title>2021-08-12</title></rect><rect fill="#444444" height="2.6" width="2.6" x="122.0" y="59.5"><title>2021-08-13</title></rect><rect fill="#444444" height="2.6" width="2.6" x="122.0" y="63.0"><title>2021-08-14</title></rect><rect fill="#444444" height="2.6" width="2.6" x="122.0" y="66.5"><title>2021-08-15</title></rect><rect fill="#444444" height="2.6" width="2.6" x="125.5" y="45.5"><title>2021-08-16</title></rect><rect fill="#444444" height="2.6" width="2.6" x="125.5" y="49.0"><title>2021-08-17</title></rect><rect fill="#444444" height="2.6" width="2.6" x="125.5" y="52.5"><title>2021-08-18</title></rect><rect fill="#444444" height="2.6" width="2.6" x="125.5" y="56.0"><title>2021-08-19</title></rect><rect fill="#444444" height="2.6" width="2.6" x="125.5" y="59.5"><title>2021-08-20</title></rect><rect fill="#444444" height="2.6" width="2.6" x="125.5" y="63.0"><title>2021-08-21</title></rect><rect fill="#444444" height="2.6" width="2.6" x="125.5" y="66.5"><title>2021-08-22</title></rect><rect fill="#444444" height="2.6" width="2.6" x="129.0" y="45.5"><title>2021-08-23</title></rect><rect fill="#444444" height="2.6" width="2.6" x="129.0" y="49.0"><title>2021-08-24</title></rect><rect fill="#444444" height="2.6" width="2.6" x="129.0" y="52.5"><title>2021-08-25</title></rect><rect fill="#444444" height="2.6" width="2.6" x="129.0" y="56.0"><title>2021-08-26</title></rect><rect fill="#444444" height="2.6" width="2.6" x="129.0" y="59.5"><title>2021-08-27</title></rect><rect fill="#444444" height="2.6" width="2.6" x="129.0" y="63.0"><title>2021-08-28</title></rect><rect fill="#444444" height="2.6" width="2.6" x="129.0" y="66.5"><title>2021-08-29</title></rect><rect fill="#444444" height="2.6" width="2.6" x="132.5" y="45.5"><title>2021-08-30</title></rect><rect fill="#444444" height="2.6" width="2.6" x="132.5" y="49.0"><title>2021-08-31</title></rect><rect fill="#444444" height="2.6" width="2.6" x="132.5" y="52.5"><title>2021-09-01</title></rect><rect fill="#444444" height="2.6" width="2.6" x="132.5" y="56.0"><title>2021-09-02</title></rect><rect fill="#444444" height="2.6" width="2.6" x="132.5" y="59.5"><title>2021-09-03</title></rect><rect fill="#444444" height="2.6" width="2.6" x="132.5" y="63.0"><title>2021-09-04</title></rect><rect fill="#444444" height="2.6" width="2.6" x="132.5" y="66.5"><title>2021-09-05</title></rect><rect fill="#444444" height="2.6" width="2.6" x="136.0" y="45.5"><title>2021-09-06</title></rect><rect fill="#444444" height="2.6" width="2.6" x="136.0" y="49.0"><title>2021-09-07</title></rect><rect fill="#444444" height="2.6" width="2.6" x="136.0" y="52.5"><title>2021-09-08</title></rect><rect fill="#444444" height="2.6" width="2.6" x="136.0" y="56.0"><title>2021-09-09</title></rect><rect fill="#444444" height="2.6" width="2.6" x="136.0" y="59.5"><title>2021-09-10</title></rect><rect fill="#444444" height="2.6" width="2.6" x="136.0" y="63.0"><title>2021-09-11</title></rect><rect fill="#444444" height="2.6" width="2.6" x="136.0" y="66.5"><title>2021-09-12</title></rect><rect fill="#444444" height="2.6" width="2.6" x="139.5" y="45.5"><title>2021-09-13</title></rect><rect fill="#444444" height="2.6" width="2.6" x="139.5" y="49.0"><title>2021-09-14</title></rect><rect fill="#444444" height="2.6" width="2.6" x="139.5" y="52.5"><title>2021-09-15</title></rect><rect fill="#444444" height="2.6" width="2.6" x="139.5" y="56.0"><title>2021-09-16</title></rect><rect fill="#444444" height="2.6" width="2.6" x="139.5" y="59.5"><title>2021-09-17</title></rect><rect fill="#444444" height="2.6" width="2.6" x="139.5" y="63.0"><title>2021-09-18</title></rect><rect fill="#444444" height="2.6" width="2.6" x="139.5" y="66.5"><title>2021-09-19</title></rect><rect fill="#444444" height="2.6" width="2.6" x="143.0" y="45.5"><title>2021-09-20</title></rect><rect fill="#444444" height="2.6" width="2.6" x="143.0" y="49.0"><title>2021-09-21</title></rect><rect fill="#444444" height="2.6" width="2.6" x="143.0" y="52.5"><title>2021-09-22</title></rect><rect fill="#444444" height="2.6" width="2.6" x="143.0" y="56.0"><title>2021-09-23</title></rect><rect fill="#444444" height="2.6" width="2.6" x="143.0" y="59.5"><title>2021-09-24</title></rect><rect fill="#444444" height="2.6" width="2.6" x="143.0" y="63.0"><title>2021-09-25</title></rect><rect fill="#444444" height="2.6" width="2.6" x="143.0" y="66.5"><title>2021-09-26</title></rect><rect fill="#444444" height="2.6" width="2.6" x="146.5" y="45.5"><title>2021-09-27</title></rect><rect fill="#444444" height="2.6" width="2.6" x="146.5" y="49.0"><title>2021-09-28</title></rect><rect fill="#444444" height="2.6" width="2.6" x="146.5" y="52.5"><title>2021-09-29</title></rect><rect fill="#444444" height="2.6" width="2.6" x="146.5" y="56.0"><title>2021-09-30</title></rect><rect fill="#444444" height="2.6" width="2.6" x="146.5" y="59.5"><title>2021-10-01</title></rect><rect fill="#444444" height="2.6" width="2.6" x="146.5" y="63.0"><title>2021-10-02</title></rect><rect fill="#444444" height="2.6" width="2.6" x="146.5" y="66.5"><title>2021-10-03</title></rect><rect fill="#444444" height="2.6" width="2.6" x="150.0" y="45.5"><title>2021-10-04</title></rect><rect fill="#444444" height="2.6" width="2.6" x="150.0" y="49.0"><title>2021-10-05</title></rect><rect fill="#444444" height="2.6" width="2.6" x="150.0" y="52.5"><title>2021-10-06</title></rect><rect fill="#444444" height="2.6" width="2.6" x="150.0" y="56.0"><title>2021-10-07</title></rect><rect fill="#444444" height="2.6" width="2.6" x="150.0" y="59.5"><title>2021-10-08</title></rect><rect fill="#444444" height="2.6" width="2.6" x="150.0" y="63.0"><title>2021-10-09</title></rect><rect fill="#444444" height="2.6" width="2.6" x="150.0" y="66.5"><title>2021-10-10</title></rect><rect fill="#444444" height="2.6" width="2.6" x="153.5" y="45.5"><title>2021-10-11</title></rect><rect fill="#444444" height="2.6" width="2.6" x="153.5" y="49.0"><title>2021-10-12</title></rect><rect fill="#444444" height="2.6" width="2.6" x="153.5" y="52.5"><title>2021-10-13</title></rect><rect fill="#444444" height="2.6" width="2.6" x="153.5" y="56.0"><title>2021-10-14</title></rect><rect fill="#444444" height="2.6" width="2.6" x="153.5" y="59.5"><title>2021-10-15</title></rect><rect fill="#444444" height="2.6" width="2.6" x="153.5" y="63.0"><title>2021-10-16</title></rect><rect fill="#444444" height="2.6" width="2.6" x="153.5" y="66.5"><title>2021-10-17</title></rect><rect fill="#444444" height="2.6" width="2.6" x="157.0" y="45.5"><title>2021-10-18</title></rect><rect fill="#444444" height="2.6" width="2.6" x="157.0" y="49.0"><title>2021-10-19</title></rect><rect fill="#444444" height="2.6" width="2.6" x="157.0" y="52.5"><title>2021-10-20</title></rect><rect fill="#444444" height="2.6" width="2.6" x="157.0" y="56.0"><title>2021-10-21</title></rect><rect fill="#444444" height="2.6" width="2.6" x="157.0" y="59.5"><title>2021-10-22</title></rect><rect fill="#444444" height="2.6" width="2.6" x="157.0" y="63.0"><title>2021-10-23</title></rect><rect fill="#444444" height="2.6" width="2.6" x="157.0" y="66.5"><title>2021-10-24</title></rect><rect fill="#444444" height="2.6" width="2.6" x="160.5" y="45.5"><title>2021-10-25</title></rect><rect fill="#444444" height="2.6" width="2.6" x="160.5" y="49.0"><title>2021-10-26</title></rect><rect fill="#444444" height="2.6" width="2.6" x="160.5" y="52.5"><title>2021-10-27</title></rect><rect fill="#444444" height="2.6" width="2.6" x="160.5" y="56.0"><title>2021-10-28</title></rect><rect fill="#444444" height="2.6" width="2.6" x="160.5" y="59.5"><title>2021-10-29</title></rect><rect fill="#444444" height="2.6" width="2.6" x="160.5" y="63.0"><title>2021-10-30</title></rect><rect fill="#444444" height="2.6" width="2.6" x="160.5" y="66.5"><title>2021-10-31</title></rect><rect fill="#444444" height="2.6" width="2.6" x="164.0" y="45.5"><title>2021-11-01</title></rect><rect fill="#444444" height="2.6" width="2.6" x="164.0" y="49.0"><title>2021-11-02</title></rect><rect fill="#444444" height="2.6" width="2.6" x="164.0" y="52.5"><title>2021-11-03</title></rect><rect fill="#444444" height="2.6" width="2.6" x="164.0" y="56.0"><title>2021-11-04</title></rect><rect fill="#444444" height="2.6" width="2.6" x="164.0" y="59.5"><title>2021-11-05</title></rect><rect fill="#444444" height="2.6" width="2.6" x="164.0" y="63.0"><title>2021-11-06</title></rect><rect fill="#444444" height="2.6" width="2.6" x="164.0" y="66.5"><title>2021-11-07</title></rect><rect fill="#444444" height="2.6" width="2.6" x="167.5" y="45.5"><title>2021-11-08</title></rect><rect fill="#444444" height="2.6" width="2.6" x="167.5" y="49.0"><title>2021-11-09</title></rect><rect fill="#444444" height="2.6" width="2.6" x="167.5" y="52.5"><title>2021-11-10</title></rect><rect fill="#444444" height="2.6" width="2.6" x="167.5" y="56.0"><title>2021-11-11</title></rect><rect fill="#444444" height="2.6" width="2.6" x="167.5" y="59.5"><title>2021-11-12</title></rect><rect fill="#444444" height="2.6" width="2.6" x="167.5" y="63.0"><title>2021-11-13</title></rect><rect fill="#444444" height="2.6" width="2.6" x="167.5" y="66.5"><title>2021-11-14</title></rect><rect fill="#444444" height="2.6" width="2.6" x="171.0" y="45.5"><title>2021-11-15</title></rect><rect fill="#444444" height="2.6" width="2.6" x="171.0" y="49.0"><title>2021-11-16</title></rect><rect fill="#444444" height="2.6" width="2.6" x="171.0" y="52.5"><title>2021-11-17</title></rect><rect fill="#444444" height="2.6" width="2.6" x="171.0" y="56.0"><title>2021-11-18</title></rect><rect fill="#444444" height="2.6" width="2.6" x="171.0" y="59.5"><title>2021-11-19</title></rect><rect fill="#444444" height="2.6" width="2.6" x="171.0" y="63.0"><title>2021-11-20</title></rect><rect fill="#444444" height="2.6" width="2.6" x="171.0" y="66.5"><title>2021-11-21</title></rect><rect fill="#444444" height="2.6" width="2.6" x="174.5" y="45.5"><title>2021-11-22</title></rect><rect fill="#444444" height="2.6" width="2.6" x="174.5" y="49.0"><title>2021-11-23</title></rect><rect fill="#444444" height="2.6" width="2.6" x="174.5" y="52.5"><title>2021-11-24</title></rect><rect fill="#444444" height="2.6" width="2.6" x="174.5" y="56.0"><title>2021-11-25</title></rect><rect fill="#444444" height="2.6" width="2.6" x="174.5" y="59.5"><title>2021-11-26</title></rect><rect fill="#444444" height="2.6" width="2.6" x="174.5" y="63.0"><title>2021-11-27</title></rect><rect fill="#444444" height="2.6" width="2.6" x="174.5" y="66.5"><title>2021-11-28</title></rect><rect fill="#444444" height="2.6" width="2.6" x="178.0" y="45.5"><title>2021-11-29</title></rect><rect fill="#444444" height="2.6" width="2.6" x="178.0" y="49.0"><title>2021-11-30</title></rect><rect fill="#444444" height="2.6" width="2.6" x="178.0" y="52.5"><title>2021-12-01</title></rect><rect fill="#444444" height="2.6" width="2.6" x="178.0" y="56.0"><title>2021-12-02</title></rect><rect fill="#444444" height="2.6" width="2.6" x="178.0" y="59.5"><title>2021-12-03</title></rect><rect fill="#444444" height="2.6" width="2.6" x="178.0" y="63.0"><title>2021-12-04</title></rect><rect fill="#444444" height="2.6" width="2.6" x="178.0" y="66.5"><title>2021-12-05</title></rect><rect fill="#444444" height="2.6" width="2.6" x="181.5" y="45.5"><title>2021-12-06</title></rect><rect fill="#444444" height="2.6" width="2.6" x="181.5" y="49.0"><title>2021-12-07</title></rect><rect fill="#444444" height="2.6" width="2.6" x="181.5" y="52.5"><title>2021-12-08</title></rect><rect fill="#444444" height="2.6" width="2.6" x="181.5" y="56.0"><title>2021-12-09</title></rect><rect fill="#444444" height="2.6" width="2.6" x="181.5" y="59.5"><title>2021-12-10</title></rect><rect fill="#444444" height="2.6" width="2.6" x="181.5" y="63.0"><title>2021-12-11</title></rect><rect fill="#444444" height="2.6" width="2.6" x="181.5" y="66.5"><title>2021-12-12</title></rect><rect fill="#444444" height="2.6" width="2.6" x="185.0" y="45.5"><title>2021-12-13</title></rect><rect fill="#444444" height="2.6" width="2.6" x="185.0" y="49.0"><title>2021-12-14</title></rect><rect fill="#444444" height="2.6" width="2.6" x="185.0" y="52.5"><title>2021-12-15</title></rect><rect fill="#444444" height="2.6" width="2.6" x="185.0" y="56.0"><title>2021-12-16</title></rect><rect fill="#444444" height="2.6" width="2.6" x="185.0" y="59.5"><title>2021-12-17</title></rect><rect fill="#444444" height="2.6" width="2.6" x="185.0" y="63.0"><title>2021-12-18</title></rect><rect fill="#444444" height="2.6" width="2.6" x="185.0" y="66.5"><title>2021-12-19</title></rect><rect fill="#444444" height="2.6" width="2.6" x="188.5" y="45.5"><title>2021-12-20</title></rect><rect fill="#444444" height="2.6" width="2.6" x="188.5" y="49.0"><title>2021-12-21</title></rect><rect fill="#444444" height="2.6" width="2.6" x="188.5" y="52.5"><title>2021-12-22</title></rect><rect fill="#444444" height="2.6" width="2.6" x="188.5" y="56.0"><title>2021-12-23</title></rect><rect fill="#444444" height="2.6" width="2.6" x="188.5" y="59.5"><title>2021-12-24</title></rect><rect fill="#444444" height="2.6" width="2.6" x="188.5" y="63.0"><title>2021-12-25</title></rect><rect fill="#444444" height="2.6" width="2.6" x="188.5" y="66.5"><title>2021-12-26</title></rect><rect fill="#444444" height="2.6" width="2.6" x="192.0" y="45.5"><title>2021-12-27</title></rect><rect fill="#444444" height="2.6" width="2.6" x="192.0" y="49.0"><title>2021-12-28</title></rect><rect fill="#444444" height="2.6" width="2.6" x="192.0" y="52.5"><title>2021-12-29</title></rect><rect fill="#444444" height="2.6" width="2.6" x="192.0" y="56.0"><title>2021-12-30</title></rect><rect fill="#444444" height="2.6" width="2.6" x="192.0" y="59.5"><title>2021-12-31</title></rect></svg>